<?xml version="1.0" encoding="UTF-8" standalone="no"?>
<svg
   xmlns:dc="http://purl.org/dc/elements/1.1/"
   xmlns:cc="http://creativecommons.org/ns#"
   xmlns:rdf="http://www.w3.org/1999/02/22-rdf-syntax-ns#"
   xmlns:svg="http://www.w3.org/2000/svg"
   xmlns="http://www.w3.org/2000/svg"
   xmlns:sodipodi="http://sodipodi.sourceforge.net/DTD/sodipodi-0.dtd"
   xmlns:inkscape="http://www.inkscape.org/namespaces/inkscape"
   version="1.1"
   id="svg2"
   xml:space="preserve"
   width="944.88"
   height="944.88"
   viewBox="0 0 944.88 944.88"
   sodipodi:docname="healthy-eating-seeklogo.com.eps"><metadata
     id="metadata8"><rdf:RDF><cc:Work
         rdf:about=""><dc:format>image/svg+xml</dc:format><dc:type
           rdf:resource="http://purl.org/dc/dcmitype/StillImage" /></cc:Work></rdf:RDF></metadata><defs
     id="defs6" /><sodipodi:namedview
     pagecolor="#ffffff"
     bordercolor="#666666"
     borderopacity="1"
     objecttolerance="10"
     gridtolerance="10"
     guidetolerance="10"
     inkscape:pageopacity="0"
     inkscape:pageshadow="2"
     inkscape:window-width="640"
     inkscape:window-height="480"
     id="namedview4" /><g
     id="g10"
     inkscape:groupmode="layer"
     inkscape:label="ink_ext_XXXXXX"
     transform="matrix(1.3333333,0,0,-1.3333333,0,944.88)"><g
       id="g12"
       transform="scale(0.1)"><path
         d="m 4679.76,5531.56 c 0,0 156.99,58.16 298.08,17.69 -16.5,-19.64 -137.69,-92.84 -204.04,-74.26 -66.39,18.55 -94.04,56.57 -94.04,56.57"
         style="fill:#42ba3b;fill-opacity:1;fill-rule:nonzero;stroke:none"
         id="path14" /><path
         d="m 4608.31,5677.53 c 0,0 -129.08,209.24 -279.61,265.08 92.81,-137.74 195.18,-261.45 230.39,-309.52 35.19,-48.09 109.08,-65.51 49.22,44.44"
         style="fill:#42ba3b;fill-opacity:1;fill-rule:nonzero;stroke:none"
         id="path16" /><path
         d="m 4594.28,5585 c 0,0 139.15,240.69 298.39,248.32 14.82,-31.09 42.29,-91.46 42.29,-91.46 0,0 -221.83,-33.26 -259.97,-153.95 -38.16,-120.67 -80.71,-2.91 -80.71,-2.91"
         style="fill:#42ba3b;fill-opacity:1;fill-rule:nonzero;stroke:none"
         id="path18" /><path
         d="m 3936.34,4768.99 c -111.01,23.81 -115.29,175.88 -88.42,314.22 32.45,167.03 189.92,656.92 315.86,729.82 125.96,72.94 234.51,56.12 343.01,-55.01 108.44,-111.18 190.86,-190.41 326.97,-235.38 136.1,-44.92 215.74,-143.47 177.68,-270.15 -49.75,-165.41 -688.25,-681.07 -787.37,-678.97 -131.79,2.83 -179.74,87.55 -188.06,154.5 -4.18,33.74 -49.13,30.15 -99.67,40.97"
         style="fill:#fdd605;fill-opacity:1;fill-rule:nonzero;stroke:none"
         id="path20" /><path
         d="m 4648.56,5626.17 c 0,0 -35.76,-42.51 94.2,-188.04 77.84,57.07 67.44,157.5 -94.2,188.04"
         style="fill:#42ba3b;fill-opacity:1;fill-rule:nonzero;stroke:none"
         id="path22" /><path
         d="m 3924.38,5187.4 c 0,0 150.42,665.54 469.73,606.91 -131.76,-90.02 -323.27,-286.67 -469.73,-606.91"
         style="fill:#ffffff;fill-opacity:1;fill-rule:nonzero;stroke:none"
         id="path24" /><path
         d="m 4173.35,4659.4 c 0,0 78.09,-115.36 508.05,293.83 -199.24,-157.1 -450.82,-309.96 -508.05,-293.83"
         style="fill:#ffffff;fill-opacity:1;fill-rule:nonzero;stroke:none"
         id="path26" /><path
         d="m 3695.91,4860.56 -52.2,-0.22 c 0,0 24.88,-486 21.43,-709.27 -3.26,-208.72 -55.7,-163.57 -66.26,-130.36 -17.31,54.22 -46.18,839.21 -46.18,839.21 l -53.19,-0.2 c 0,0 6.54,-636.78 2.94,-754.73 -3.68,-117.99 -41.3,-118.15 -41.3,-118.15 0,0 -37.57,-0.18 -42.31,117.78 -4.7,117.95 -3.71,754.72 -3.71,754.72 l -53.25,-0.21 c 0,0 -21.9,-785.25 -38.73,-839.63 -10.3,-33.34 -62.34,-78.94 -67.37,129.8 -5.49,223.16 15.12,709.41 15.12,709.41 l -52.19,-0.23 c 0,0 -75.41,-788.34 -36.62,-1054.36 15.87,-109.01 52.66,-181.32 95.96,-228.72 86.2,-103.14 152.59,-162.93 130.04,-505.64 -22.52,-342.7 -158.78,-1509.24 -119.86,-1803.54 38.96,-294.38 186.23,-290.669 186.23,-290.669 0,0 147.26,-2.321 183.63,292.309 36.36,294.65 -110.22,1459.94 -135.77,1802.42 -25.58,342.45 40.24,402.87 125.55,506.76 42.91,47.77 79.08,120.39 93.95,229.53 36.48,266.35 -45.91,1053.99 -45.91,1053.99"
         style="fill:#393536;fill-opacity:1;fill-rule:nonzero;stroke:none"
         id="path28" /><path
         d="m 3206.2,3881.77 c -7.66,64.21 -3.56,124.72 17.51,118.77 21.04,-5.92 46.85,-62.88 91.8,-31.14 44.9,31.73 68.88,40.86 93.03,16.92 24.16,-23.93 67.83,-35.73 96.25,-7.05 28.39,28.62 44.94,33.26 73.58,7.8 28.66,-25.42 78.23,-28.22 103.66,-1.03 25.42,27.15 -18.67,-198.4 -150.44,-287.67 -131.88,-89.22 -305.12,13.65 -325.39,183.4"
         style="fill:#ffffff;fill-opacity:1;fill-rule:nonzero;stroke:none"
         id="path30" /><path
         d="m 3437.19,3295.3 c -4.13,60.45 -11.98,108.13 10.91,130.74 22.95,22.62 33.89,-68.94 31.82,-273.28 -2.13,-204.37 123.62,-1467.24 69.64,-1837.3 -48.82,-334.792 -233.12,-186.21 -234.4,-1.06 -3.22,489.07 50.21,888.23 71.43,1179.06 21.26,290.81 56.28,717.23 50.6,801.84"
         style="fill:#ffffff;fill-opacity:1;fill-rule:nonzero;stroke:none"
         id="path32" /><path
         d="M 3859.79,2843.68 V 2614.5 h 149.86 v 229.18 h 61.07 V 2309.2 h -61.07 v 249.79 H 3859.79 V 2309.2 h -61.08 v 534.48 h 61.08"
         style="fill:#393536;fill-opacity:1;fill-rule:nonzero;stroke:none"
         id="path34" /><path
         d="m 4360.97,2562.96 h -134.02 v -200.63 h 152.26 v -53.13 h -213.32 v 534.48 h 203.8 v -53.13 H 4226.95 V 2614.5 h 134.02 v -51.54"
         style="fill:#393536;fill-opacity:1;fill-rule:nonzero;stroke:none"
         id="path36" /><path
         d="m 4621.07,2518.55 -27.75,135.6 c -7.93,38.07 -15.07,82.47 -21.41,122.13 h -2.38 c -6.35,-40.45 -14.28,-86.44 -22.21,-122.13 l -27.75,-135.6 z m -110.23,-49.17 -34.88,-160.18 h -59.48 l 122.11,534.48 h 67.42 l 118.95,-534.48 h -60.27 l -34.9,160.18 h -118.95"
         style="fill:#393536;fill-opacity:1;fill-rule:nonzero;stroke:none"
         id="path38" /><path
         d="m 4791.58,2843.68 h 61.06 v -482.94 h 149.88 v -51.54 h -210.94 v 534.48"
         style="fill:#393536;fill-opacity:1;fill-rule:nonzero;stroke:none"
         id="path40" /><path
         d="m 5073.9,2788.96 h -97.53 v 54.72 h 256.13 v -54.72 h -97.54 V 2309.2 h -61.06 v 479.76"
         style="fill:#393536;fill-opacity:1;fill-rule:nonzero;stroke:none"
         id="path42" /><path
         d="M 5353.04,2843.68 V 2614.5 h 149.87 v 229.18 h 61.06 V 2309.2 h -61.06 v 249.79 H 5353.04 V 2309.2 h -61.07 v 534.48 h 61.07"
         style="fill:#393536;fill-opacity:1;fill-rule:nonzero;stroke:none"
         id="path44" /><path
         d="m 5736.86,2309.2 v 226 l -118.15,308.48 h 65.02 l 47.58,-134.01 c 12.69,-37.28 27.75,-79.31 39.65,-120.54 h 1.58 c 10.31,41.23 24.59,81.68 38.87,122.91 l 45.19,131.64 h 63.44 l -122.12,-306.1 V 2309.2 h -61.06"
         style="fill:#393536;fill-opacity:1;fill-rule:nonzero;stroke:none"
         id="path46" /><path
         d="m 3993.79,1913.03 h -134 V 1712.4 h 152.24 v -53.13 h -213.32 v 534.48 h 203.81 v -53.14 h -142.73 v -176.04 h 134 v -51.54"
         style="fill:#393536;fill-opacity:1;fill-rule:nonzero;stroke:none"
         id="path48" /><path
         d="m 4253.91,1868.62 -27.76,135.6 c -7.94,38.06 -15.08,82.47 -21.41,122.13 h -2.39 c -6.33,-40.45 -14.26,-86.45 -22.19,-122.13 l -27.76,-135.6 z m -110.24,-49.17 -34.89,-160.18 h -59.47 l 122.12,534.48 h 67.4 l 118.95,-534.48 h -60.26 l -34.9,160.18 h -118.95"
         style="fill:#393536;fill-opacity:1;fill-rule:nonzero;stroke:none"
         id="path50" /><path
         d="m 4439.47,2139.03 h -97.54 v 54.72 h 256.15 v -54.72 h -97.54 v -479.76 h -61.07 v 479.76"
         style="fill:#393536;fill-opacity:1;fill-rule:nonzero;stroke:none"
         id="path52" /><path
         d="m 4718.61,2193.75 v -534.48 h -61.06 v 534.48 h 61.06"
         style="fill:#393536;fill-opacity:1;fill-rule:nonzero;stroke:none"
         id="path54" /><path
         d="m 4816.15,1659.27 v 534.48 h 57.09 l 98.33,-250.59 c 22.21,-57.89 49.96,-128.46 68.2,-186.35 h 1.59 c -4.76,84.06 -7.14,153.04 -7.14,245.83 v 191.11 h 54.73 v -534.48 h -57.11 l -101.51,256.93 c -22.2,53.93 -45.19,114.98 -64.23,181.59 h -1.58 c 4.76,-71.37 6.34,-139.56 6.34,-253.76 v -184.76 h -54.71"
         style="fill:#393536;fill-opacity:1;fill-rule:nonzero;stroke:none"
         id="path56" /><path
         d="m 5446.59,1672.74 c -22.21,-9.51 -61.06,-18.23 -94.36,-18.23 -46.79,0 -90.41,12.69 -126.1,51.54 -38.84,41.24 -65.02,114.98 -64.23,213.32 0.8,208.56 107.06,279.13 201.42,279.13 33.31,0 59.48,-6.33 75.34,-15.06 l -13.48,-52.34 c -14.27,7.14 -32.51,12.69 -61.06,12.69 -66.62,0 -138.77,-53.13 -138.77,-218.87 0,-164.94 62.64,-218.08 126.88,-218.08 20.61,0 32.51,3.18 37.26,6.35 v 174.46 h -68.98 v 50.75 h 126.08 v -265.66"
         style="fill:#393536;fill-opacity:1;fill-rule:nonzero;stroke:none"
         id="path58" /><path
         d="m 2173.82,3124.69 c -107.3,69.61 -683.98,396.5 -566.46,712.53 117.5,316.02 792.05,10.16 1173.09,-146.13 460.98,-189.08 525.71,-528.57 346.05,-718.42 -187.26,-197.89 -559.37,-103.16 -952.68,152.02"
         style="fill:#3e0425;fill-opacity:1;fill-rule:nonzero;stroke:none"
         id="path60" /><path
         d="m 1836.36,3901.85 c 0,0 953.78,-149.34 1303.46,-601.46 -264.19,167.82 -798.65,428.11 -1303.46,601.46"
         style="fill:#ffffff;fill-opacity:1;fill-rule:nonzero;stroke:none"
         id="path62" /><path
         d="m 2411,3095.64 c 0,0 378.9,-252.36 635.27,-68.18 -263.34,-19.38 -403.24,3.91 -635.27,68.18"
         style="fill:#ffffff;fill-opacity:1;fill-rule:nonzero;stroke:none"
         id="path64" /><path
         d="m 1408.09,3922.97 c 0,0 125.84,-58.28 166.44,-22.87 40.63,35.4 165.1,105.8 340.95,89.92 -93.05,-20.35 -155.8,-109.61 -64.8,-183.96 -125.62,42.98 -132.32,-110.58 -93.96,-154.58 -99.65,69.2 -162.2,1.57 -142.39,-71.7 -30.07,90.53 -53.08,134.93 -50.88,171.92 2.18,36.99 -121.26,111.64 -172.04,104.29 -7.89,33.65 16.68,66.98 16.68,66.98"
         style="fill:#54bf36;fill-opacity:1;fill-rule:nonzero;stroke:none"
         id="path66" /><path
         d="m 1572.13,3872.71 c 0,0 133.26,91.18 221.15,74.89 -10.68,-25.96 -17.25,-41.95 -17.25,-41.95 0,0 -107.9,7.53 -203.9,-32.94"
         style="fill:#ffffff;fill-opacity:1;fill-rule:nonzero;stroke:none"
         id="path68" /><path
         d="m 5266.51,4233.23 c 0,0 -185.06,-104.09 -225.74,-162.7 -40.67,-58.64 46.46,7.81 46.46,7.81 0,0 161.91,102.7 198.98,111.75 -2.6,24.48 -19.7,43.14 -19.7,43.14"
         style="fill:#42ba3b;fill-opacity:1;fill-rule:nonzero;stroke:none"
         id="path70" /><path
         d="m 5084.78,4133.4 c 0,0 109.97,115.13 169.72,235.07 35.75,-19.43 41.36,-31.75 41.36,-31.75 0,0 -157.15,-201.45 -226.95,-252.46 -69.81,-51.02 15.87,49.14 15.87,49.14"
         style="fill:#42ba3b;fill-opacity:1;fill-rule:nonzero;stroke:none"
         id="path72" /><path
         d="m 3796.31,3256.49 c -204.44,-148.03 -97.15,-300.87 154.31,-128.68 251.45,172.21 1367.02,662.44 1203.31,930.2 -144.38,236.15 -234,158.55 -410.47,19.76 -104.52,-82.2 -731.62,-665.21 -947.15,-821.28"
         style="fill:#f36518;fill-opacity:1;fill-rule:nonzero;stroke:none"
         id="path74" /><path
         d="m 3783.57,3172.32 c 0,0 987.94,854.88 1142.63,953.5 -174.07,-178.79 -970.56,-875.14 -1142.63,-953.5"
         style="fill:#ffffff;fill-opacity:1;fill-rule:nonzero;stroke:none"
         id="path76" /><path
         d="m 3991.19,3191.23 c 0,0 1089.38,594.46 1104.79,761.9 -39.81,125.22 -249.12,-53.7 -318.36,-117.55 -69.26,-63.82 -786.43,-644.35 -786.43,-644.35"
         style="fill:#f0401e;fill-opacity:1;fill-rule:nonzero;stroke:none"
         id="path78" /><path
         d="m 2503.5,4690.05 c -79.77,-53.39 -244.05,-66.49 -418.16,122.21 -174.13,188.73 -357.24,608.77 76.69,681.5 139.7,5.7 139.7,5.7 139.7,5.7 0,0 103.5,114.14 279.91,131.57 212.48,21.02 305.65,-125.61 333.49,-333.72 26.15,-195.23 -65.16,-534.29 -197.24,-551.02 -132.08,-16.73 -214.39,-56.24 -214.39,-56.24"
         style="fill:#42ba3b;fill-opacity:1;fill-rule:nonzero;stroke:none"
         id="path80" /><path
         d="m 1945.02,5179.44 c 0,0 -52.07,196.38 181.85,245.18 233.94,48.84 252.31,77.52 349.4,138.61 -19.6,-68.1 -233.29,-183.94 -317.54,-207.61 -84.3,-23.66 -192.45,-89.29 -213.71,-176.18"
         style="fill:#ffffff;fill-opacity:1;fill-rule:nonzero;stroke:none"
         id="path82" /><path
         d="m 2723.71,4799.21 c 0,0 159.79,179.18 123.56,410.54 -44.5,-204.03 -123.56,-410.54 -123.56,-410.54"
         style="fill:#ffffff;fill-opacity:1;fill-rule:nonzero;stroke:none"
         id="path84" /><path
         d="m 2284.53,5478.88 c 0,0 -68.85,170.8 -9.25,244.18 18.37,-8.08 39.07,-33.79 39.07,-33.79 0,0 -54.25,-45.79 -11.76,-199.67 -18.06,-10.72 -18.06,-10.72 -18.06,-10.72"
         style="fill:#42ba3b;fill-opacity:1;fill-rule:nonzero;stroke:none"
         id="path86" /><path
         d="m 2318.13,4811.9 c 21.82,-24.26 196.46,-112.44 307.96,63.66 111.51,176.11 139.87,587.83 2.82,551.25 -137.07,-36.58 -621.83,-269.2 -310.78,-614.91"
         style="fill:#379a30;fill-opacity:1;fill-rule:nonzero;stroke:none"
         id="path88" /><path
         d="m 3864.73,5308.29 c -24,-18.77 -202.58,37.85 -298.57,137.06 -95.97,99.22 -77.27,192.03 110.25,247.59 66.57,23.16 158.76,132.76 245.49,90.92 80.32,-38.76 119.27,-337.6 -57.17,-475.57"
         style="fill:#ed1c24;fill-opacity:1;fill-rule:nonzero;stroke:none"
         id="path90" /><path
         d="m 3451.06,5669.06 c 0,0 137.81,3.33 215,59.25 77.19,55.92 139.05,154.53 154.11,212.09 -0.03,-71.13 -18.75,-144.24 -66.55,-188.75 75.45,48.1 99.16,21.48 129.61,28.6 -16.93,-16.65 -80.92,-116.63 -152.91,-69.28 -16.72,-39.93 -35.02,-82.28 -99.92,-117.75 14.16,42.3 -21.84,37.19 -10.43,62.3 -55.06,-21.39 -89.76,-31.37 -168.91,13.54"
         style="fill:#42ba3b;fill-opacity:1;fill-rule:nonzero;stroke:none"
         id="path92" /><path
         d="m 3666.51,5715.97 c 0,0 -66.68,62.18 -57.16,128.18 17.28,-9.67 33.55,-5.88 33.55,-5.88 0,0 -8.73,-61.43 33.89,-110.28 11.53,-16.67 -10.28,-12.02 -10.28,-12.02"
         style="fill:#42ba3b;fill-opacity:1;fill-rule:nonzero;stroke:none"
         id="path94" /><path
         d="m 3526.73,5742.35 c 0,0 49.13,-74.72 120.23,-49.08 41.45,29.25 41.45,29.25 41.45,29.25 0,0 -133.28,1.69 -161.68,19.83"
         style="fill:#42ba3b;fill-opacity:1;fill-rule:nonzero;stroke:none"
         id="path96" /><path
         d="m 3584.33,5465.2 c 0,0 -101.11,98.31 1.86,155.7 -12.18,-49.2 -17.84,-123.07 -1.86,-155.7"
         style="fill:#ffffff;fill-opacity:1;fill-rule:nonzero;stroke:none"
         id="path98" /><path
         d="m 3905.71,5386.92 c 0,0 91.72,120.2 43.02,256.7 -20.06,-121.38 -17.45,-212.13 -43.02,-256.7"
         style="fill:#ffffff;fill-opacity:1;fill-rule:nonzero;stroke:none"
         id="path100" /><path
         d="m 3884.17,5454.29 c -6.11,-25.38 -34.18,-119.08 -76.72,-104.46 -42.53,14.63 -171.22,55.26 -178.42,115.37 -7.18,60.12 213.23,137.44 240.3,128.02 27.07,-9.4 35.46,-53.27 14.84,-138.93"
         style="fill:#d1181f;fill-opacity:1;fill-rule:nonzero;stroke:none"
         id="path102" /><path
         d="m 3083.99,5192.28 c -104.74,16 -230.96,46.81 -170.03,202.55 60.93,155.74 152.63,340.19 248.16,320.62 95.53,-19.55 239.59,-571.65 -78.13,-523.17"
         style="fill:#d7997a;fill-opacity:1;fill-rule:nonzero;stroke:none"
         id="path104" /><path
         d="m 2930.4,5920.52 c 132.42,79.98 368.28,48.97 514.22,-105.35 145.95,-154.31 6.58,-308.25 -75.37,-283.16 -81.96,25.09 -182.6,218.12 -289.5,153.8 -106.91,-64.3 -395.48,86.04 -149.35,234.71"
         style="fill:#d7997a;fill-opacity:1;fill-rule:nonzero;stroke:none"
         id="path106" /><path
         d="m 2938.13,5870.2 c 0,0 194.05,165.55 432.19,-66.75 -158.51,63.58 -432.19,66.75 -432.19,66.75"
         style="fill:#ffffff;fill-opacity:1;fill-rule:nonzero;stroke:none"
         id="path108" /><path
         d="m 2936.87,5315.48 c 0,0 15.62,151 113.88,281.49 42.09,-128.61 -39.45,-372.67 -113.88,-281.49"
         style="fill:#ffffff;fill-opacity:1;fill-rule:nonzero;stroke:none"
         id="path110" /><path
         d="m 4613.56,4085.69 c -189.34,17.05 -446.66,306.67 -340,600 106.68,293.34 690,176.68 753.34,-26.66 63.34,-203.34 -80,-603.34 -413.34,-573.34"
         style="fill:#ed1c24;fill-opacity:1;fill-rule:nonzero;stroke:none"
         id="path112" /><path
         d="m 4587.31,4700.49 c -19.29,13.95 -5.03,103.13 120.61,84.38 125.64,-18.75 104.45,-52.46 61.93,-58.73 -42.54,-6.27 -146.89,-51.42 -182.54,-25.65"
         style="fill:#cf181f;fill-opacity:1;fill-rule:nonzero;stroke:none"
         id="path114" /><path
         d="m 4693.54,4749.03 c -32.79,17.66 -61.64,-18.34 -21.64,-35 40,-16.66 86.61,0 21.64,35"
         style="fill:#42ba3b;fill-opacity:1;fill-rule:nonzero;stroke:none"
         id="path116" /><path
         d="m 4516.9,4885.69 c 0,0 124.59,-93.81 128.13,-131.9 3.53,-38.1 65.15,-26.42 48.51,-4.76 -16.64,21.66 -63.3,91.66 -176.64,136.66"
         style="fill:#42ba3b;fill-opacity:1;fill-rule:nonzero;stroke:none"
         id="path118" /><path
         d="m 4696.39,4719.03 c 0.01,0 3.72,2.13 10.46,5.63 39.74,20.72 184.82,89.52 291.71,51.03 -105,56.68 -259.52,26.59 -313.08,-45.04 3.08,-13.28 -120.24,18.69 -188.58,-23.12 75,3.16 158.97,11.44 192.23,8.16 33.26,-3.26 21.11,23.34 21.11,23.34 0,0 -155,-46.67 -193.34,-143.34 71.66,35 179.49,123.34 179.49,123.34"
         style="fill:#42ba3b;fill-opacity:1;fill-rule:nonzero;stroke:none"
         id="path120" /><path
         d="m 4702.74,4709.87 c 0,0 170,-6.25 205.41,-77.92 -17.5,54.17 -109.56,111.11 -196.66,91.81 -15.1,-4.73 -8.75,-13.89 -8.75,-13.89"
         style="fill:#42ba3b;fill-opacity:1;fill-rule:nonzero;stroke:none"
         id="path122" /><path
         d="m 4689.13,4709.79 c 0,0 34.09,-57.01 22.84,-101.17 19.58,37.91 20.42,74.16 -2.08,102.91 -2.92,-1.66 -20.76,-1.74 -20.76,-1.74"
         style="fill:#42ba3b;fill-opacity:1;fill-rule:nonzero;stroke:none"
         id="path124" /><path
         d="m 4287.31,4517.37 c 0,0 -30,275 281.25,301.25 -125,-64.83 -262.53,-198.68 -281.25,-301.25"
         style="fill:#ffffff;fill-opacity:1;fill-rule:nonzero;stroke:none"
         id="path126" /><path
         d="m 4747.74,4143.62 c 0,0 224.57,88.75 239.57,317.5 -38.75,-113.75 -150.41,-282.5 -239.57,-317.5"
         style="fill:#ffffff;fill-opacity:1;fill-rule:nonzero;stroke:none"
         id="path128" /><path
         d="m 1704.17,5036.11 -25.15,-77.83 165.27,-153 c 0,0 -46.6,151.48 -140.12,230.83"
         style="fill:#42ba3b;fill-opacity:1;fill-rule:nonzero;stroke:none"
         id="path130" /><path
         d="m 5029.95,4959.69 c 0,0 143.32,131.3 410,97.32 -66.67,-44 -340,-147.32 -410,-97.32"
         style="fill:#42ba3b;fill-opacity:1;fill-rule:nonzero;stroke:none"
         id="path132" /><path
         d="m 2314.35,6058.68 c 0,0 194.23,7.4 375.6,-191.04 -79.3,9.59 -354.57,107.62 -375.6,191.04"
         style="fill:#42ba3b;fill-opacity:1;fill-rule:nonzero;stroke:none"
         id="path134" /><path
         d="m 1761.65,4157.4 c 0,0 -220,-45.45 -340,108.09 83.34,16.87 310,-76.39 340,-108.09"
         style="fill:#42ba3b;fill-opacity:1;fill-rule:nonzero;stroke:none"
         id="path136" /><path
         d="m 3430.05,5391.87 -38.7,-87.15 h 95.36 v 87.15 h -56.66"
         style="fill:#42ba3b;fill-opacity:1;fill-rule:nonzero;stroke:none"
         id="path138" /><path
         d="m 4213.69,4048.27 c 0,0 176.67,4.49 230,-82.75 -60,-23.91 -223.33,22.75 -230,82.75"
         style="fill:#42ba3b;fill-opacity:1;fill-rule:nonzero;stroke:none"
         id="path140" /><path
         d="m 2566.79,3919.15 c 0,0 113.69,135.3 214.37,117.44 -21.84,-60.78 -165.02,-152.2 -214.37,-117.44"
         style="fill:#42ba3b;fill-opacity:1;fill-rule:nonzero;stroke:none"
         id="path142" /><path
         d="m 3495.75,5998.32 c 0,0 -61.59,173.39 67,297.52 35.72,-98.81 -36.51,-278.86 -67,-297.52"
         style="fill:#42ba3b;fill-opacity:1;fill-rule:nonzero;stroke:none"
         id="path144" /><path
         d="m 2032.16,4022.14 c -272.19,95.06 -329.87,658.08 166.71,726.68 499.54,69 533.46,-971.19 -166.71,-726.68"
         style="fill:#f89a0f;fill-opacity:1;fill-rule:nonzero;stroke:none"
         id="path146" /><path
         d="m 1943.58,4414.25 c 0,0 -7.5,357.03 478.3,212.14 -321.36,-10.37 -425.99,-137.4 -478.3,-212.14"
         style="fill:#ffffff;fill-opacity:1;fill-rule:nonzero;stroke:none"
         id="path148" /><path
         d="m 2092.67,4092.88 c 0,0 284.36,-164.41 396.46,224.2 -141.98,-254.08 -396.46,-224.2 -396.46,-224.2"
         style="fill:#ffffff;fill-opacity:1;fill-rule:nonzero;stroke:none"
         id="path150" /></g></g></svg>
